<svg xmlns="http://www.w3.org/2000/svg" viewBox="0 0 120 120" role="img" aria-labelledby="titleDesc">
  <title id="titleDesc">Scholars Public School Logo</title>
  <defs>
    <linearGradient id="shieldGrad" x1="0%" y1="0%" x2="100%" y2="100%">
      <stop offset="0%" stop-color="#0f2340" />
      <stop offset="100%" stop-color="#112c54" />
    </linearGradient>
    <linearGradient id="bookGrad" x1="0%" y1="0%" x2="0%" y2="100%">
      <stop offset="0%" stop-color="#f8fafc" />
      <stop offset="100%" stop-color="#d8dfe8" />
    </linearGradient>
  </defs>
  <path d="M60 8 L98 28 L98 68 C98 95 74 114 60 114 C46 114 22 95 22 68 L22 28 Z" fill="url(#shieldGrad)" stroke="#c0c8d8" stroke-width="4" />
  <path d="M36 54 H84 V72 C84 76 80 80 74 80 H46 C40 80 36 76 36 72 Z" fill="url(#bookGrad)" stroke="#7d94b2" stroke-width="3" />
  <path d="M44 54 V48 C44 44 48 40 54 40 H66 C72 40 76 44 76 48 V54" fill="#fdfbf8" stroke="#7d94b2" stroke-width="2" />
  <path d="M54 40 C54 30 62 28 60 18 C58 28 66 30 66 40" fill="#ffc45c" stroke="#e8b420" stroke-width="2" />
  <path d="M32 48 Q24 54 32 62" fill="none" stroke="#9bc4f3" stroke-width="3" />
  <path d="M88 48 Q96 54 88 62" fill="none" stroke="#9bc4f3" stroke-width="3" />
  <path d="M34 64 Q30 72 34 78" fill="none" stroke="#c0c8d8" stroke-width="2" />
  <path d="M86 64 Q90 72 86 78" fill="none" stroke="#c0c8d8" stroke-width="2" />
  <text x="60" y="108" text-anchor="middle" fill="#c0c8d8" font-family="Inter, sans-serif" font-size="9" font-weight="700">SCHOLARS PUBLIC SCHOOL</text>
</svg>
